# xmcd CD database file
# Copyright (C) 1996 Ti Kan
#
# Track frame offsets:
# 	150
# 	3587
# 	4942
# 	24502
# 	39462
# 	56792
# 	64142
# 	74325
# 	81410
# 	89562
# 	95982
# 	100065
# 	104862
# 	108202
# 	109142
# 	111817
# 	115145
# 	123267
# 	125665
# 	130382
# 	131122
# 	136502
# 	139440
# 	150285
# 	164080
# 	169620
# 	181385
# 	185322
# 	200322
# 	211597
# 	222992
# 	230332
# 	251447
# 	253185
# 	254722
# 	258847
# 	273860
# 	280412
# 	288705
# 	292930
# 	298430
#
# Disc length: 4018 seconds
#
# Revision: 1
# Processed by: cddbd v1.4b41PL1 Copyright (c) Steve Scherf et al.
# Submitted via: DiscPlay 3.4.1
#
DISCID=7e0fb029
DTITLE=Elvis Presley - The Million Dollar Quartet
DYEAR=1900
DGENRE=
TTITLE0=You Belong To My Heart
TTITLE1=When God Dips His Love In My Heart
TTITLE2=Just A Little Talk With Jesus
TTITLE3=Jesus Walked That Lonesome Valley
TTITLE4=I Shall Not Be Moved
TTITLE5=Peace In The Valley
TTITLE6=Down By The Riverside
TTITLE7=I'm With A Crowd But So Alone
TTITLE8=Farther Along
TTITLE9=Blessed Jesus (Hold My Hand)
TTITLE10=As We Travel Along The Jericho Road
TTITLE11=I Just Can't Make It By Myself
TTITLE12=Little Cabin Home On The Hill
TTITLE13=Summertime Is Past And Gone
TTITLE14=I Hear A Sweet Voice Calling
TTITLE15=Sweetheart You Done Me Wrong
TTITLE16=Keeper Of The Key
TTITLE17=Crazy Arms
TTITLE18=Don't Forbid Me
TTITLE19=Too Much Monkey Business
TTITLE20=Brown Eyed Handsome Man
TTITLE21=Out Of Sight, Out Of Mind
TTITLE22=Brown Eyed Handsome Man
TTITLE23=Don't Be Cruel
TTITLE24=Don't Be Cruel
TTITLE25=Paralyzed
TTITLE26=Don't Be Cruel
TTITLE27=There's No Place Like Home
TTITLE28=When The Saints Go Marchin' In
TTITLE29=Softly And Tenderly
TTITLE30=Is It So Strange
TTITLE31=That's When Your Heartaches Begin
TTITLE32=Brown Eyed Handsome Man
TTITLE33=Rip It Up
TTITLE34=I'm Gonna Bid My Blues Goodbye
TTITLE35=Crazy Arms
TTITLE36=That's My Desire
TTITLE37=End Of The Road
TTITLE38=Black Bottom Stomp
TTITLE39=You're The Only Star In My Blue Heaven
TTITLE40=Elvis
EXTD=
EXTT0=
EXTT1=
EXTT2=
EXTT3=
EXTT4=
EXTT5=
EXTT6=
EXTT7=
EXTT8=
EXTT9=
EXTT10=
EXTT11=
EXTT12=
EXTT13=
EXTT14=
EXTT15=
EXTT16=
EXTT17=
EXTT18=
EXTT19=
EXTT20=
EXTT21=
EXTT22=
EXTT23=
EXTT24=
EXTT25=
EXTT26=
EXTT27=
EXTT28=
EXTT29=
EXTT30=
EXTT31=
EXTT32=
EXTT33=
EXTT34=
EXTT35=
EXTT36=
EXTT37=
EXTT38=
EXTT39=
EXTT40=
PLAYORDER=
